<?xml version="1.0" encoding="UTF-8"?>
<svg width="500" height="500" xmlns="http://www.w3.org/2000/svg">
  <defs>
    <pattern id="circuit" width="100" height="100" patternUnits="userSpaceOnUse">
      <!-- Horizontal lines -->
      <path d="M10,10 L90,10" stroke="rgba(0,180,216,0.15)" fill="none" stroke-width="1"/>
      <path d="M30,30 L70,30" stroke="rgba(0,180,216,0.15)" fill="none" stroke-width="1"/>
      <path d="M20,50 L80,50" stroke="rgba(0,180,216,0.15)" fill="none" stroke-width="1"/>
      <path d="M40,70 L60,70" stroke="rgba(0,180,216,0.15)" fill="none" stroke-width="1"/>
      <path d="M10,90 L90,90" stroke="rgba(0,180,216,0.15)" fill="none" stroke-width="1"/>
      
      <!-- Vertical lines -->
      <path d="M10,10 L10,90" stroke="rgba(0,180,216,0.15)" fill="none" stroke-width="1"/>
      <path d="M30,30 L30,70" stroke="rgba(0,180,216,0.15)" fill="none" stroke-width="1"/>
      <path d="M50,10 L50,90" stroke="rgba(0,180,216,0.15)" fill="none" stroke-width="1"/>
      <path d="M70,30 L70,70" stroke="rgba(0,180,216,0.15)" fill="none" stroke-width="1"/>
      <path d="M90,10 L90,90" stroke="rgba(0,180,216,0.15)" fill="none" stroke-width="1"/>
      
      <!-- Connection points -->
      <circle cx="10" cy="10" r="2" fill="rgba(0,180,216,0.3)"/>
      <circle cx="10" cy="50" r="2" fill="rgba(0,180,216,0.3)"/>
      <circle cx="10" cy="90" r="2" fill="rgba(0,180,216,0.3)"/>
      <circle cx="30" cy="30" r="2" fill="rgba(0,180,216,0.3)"/>
      <circle cx="30" cy="70" r="2" fill="rgba(0,180,216,0.3)"/>
      <circle cx="50" cy="10" r="2" fill="rgba(0,180,216,0.3)"/>
      <circle cx="50" cy="50" r="2" fill="rgba(0,180,216,0.3)"/>
      <circle cx="50" cy="90" r="2" fill="rgba(0,180,216,0.3)"/>
      <circle cx="70" cy="30" r="2" fill="rgba(0,180,216,0.3)"/>
      <circle cx="70" cy="70" r="2" fill="rgba(0,180,216,0.3)"/>
      <circle cx="90" cy="10" r="2" fill="rgba(0,180,216,0.3)"/>
      <circle cx="90" cy="50" r="2" fill="rgba(0,180,216,0.3)"/>
      <circle cx="90" cy="90" r="2" fill="rgba(0,180,216,0.3)"/>
      
      <!-- Diagonal connections -->
      <path d="M10,10 L30,30" stroke="rgba(0,180,216,0.15)" fill="none" stroke-width="1"/>
      <path d="M70,30 L90,10" stroke="rgba(0,180,216,0.15)" fill="none" stroke-width="1"/>
      <path d="M10,90 L30,70" stroke="rgba(0,180,216,0.15)" fill="none" stroke-width="1"/>
      <path d="M70,70 L90,90" stroke="rgba(0,180,216,0.15)" fill="none" stroke-width="1"/>
    </pattern>
  </defs>
  <rect width="100%" height="100%" fill="url(#circuit)" />
</svg>
